# xmcd
#
# Track frame offsets: 
#        182
#        13092
#        24610
#        35347
#        48035
#        60340
#        72802
#        86637
#        100920
#        113347
#        127867
#        140475
#        155240
#        166547
#        177907
#        189725
#        202195
#        214525
#        227045
#        237880
#
# Disc length: 3331 seconds
#
# Revision: 0
# Processed by: cddbd v1.5.1PL0 Copyright (c) Steve Scherf et al.
# Submitted via: ExactAudioCopy v0.95b3
#
DISCID=030d0114
DTITLE=Orquesta Tipica Victor - 1926 - 1940
DYEAR=1996
DGENRE=Tango
TTITLE0=Negro
TTITLE1=Rentintin
TTITLE2=Pato
TTITLE3=Hilos de Plata
TTITLE4=La Payanca
TTITLE5=Puente Alsina
TTITLE6=Chuzazos
TTITLE7=Re Fa Si
TTITLE8=De Mi Barrio
TTITLE9=Fumando Espero
TTITLE10=Julienne
TTITLE11=Adios Muchachos
TTITLE12=Carta Brava
TTITLE13=Che Papusa Oi
TTITLE14=Ensueno
TTITLE15=Dominio
TTITLE16=Viento Norte
TTITLE17=Cardos
TTITLE18=Como Tigre Cebao
TTITLE19=Tango Milonguero
EXTD=
EXTT0=
EXTT1=
EXTT2=
EXTT3=
EXTT4=
EXTT5=
EXTT6=
EXTT7=
EXTT8=
EXTT9=
EXTT10=
EXTT11=
EXTT12=
EXTT13=
EXTT14=
EXTT15=
EXTT16=
EXTT17=
EXTT18=
EXTT19=
PLAYORDER=
